<?xml version="1.0" encoding="UTF-8" standalone="no"?>
<!-- Generator: Adobe Illustrator 19.0.0, SVG Export Plug-In . SVG Version: 6.00 Build 0)  -->

<svg
   version="1.1"
   id="Layer_1"
   x="0px"
   y="0px"
   viewBox="0 0 512 512"
   style="enable-background:new 0 0 512 512;"
   xml:space="preserve"
   sodipodi:docname="logo.svg"
   inkscape:export-filename="logo.png"
   inkscape:export-xdpi="96"
   inkscape:export-ydpi="96"
   inkscape:version="1.2.1 (9c6d41e4, 2022-07-14)"
   xmlns:inkscape="http://www.inkscape.org/namespaces/inkscape"
   xmlns:sodipodi="http://sodipodi.sourceforge.net/DTD/sodipodi-0.dtd"
   xmlns="http://www.w3.org/2000/svg"
   xmlns:svg="http://www.w3.org/2000/svg"><defs
   id="defs45" /><sodipodi:namedview
   id="namedview43"
   pagecolor="#505050"
   bordercolor="#eeeeee"
   borderopacity="1"
   inkscape:showpageshadow="0"
   inkscape:pageopacity="0"
   inkscape:pagecheckerboard="0"
   inkscape:deskcolor="#505050"
   showgrid="false"
   inkscape:zoom="1.1220457"
   inkscape:cx="95.807149"
   inkscape:cy="267.8144"
   inkscape:window-width="1920"
   inkscape:window-height="1027"
   inkscape:window-x="0"
   inkscape:window-y="25"
   inkscape:window-maximized="0"
   inkscape:current-layer="Layer_1" />
<g
   id="g10">
	<g
   id="g8">
		<g
   id="g6">
			<path
   d="M489.579,254.766c-12.942-16.932-30.829-29.887-50.839-36.933c-0.828-48.454-40.501-87.618-89.148-87.618     c-7.618,0-15.213,0.993-22.647,2.958c-12.102-15.076-27.37-27.615-44.441-36.457c-19.642-10.173-40.881-15.331-63.127-15.331     c-74.705,0-135.736,59.676-137.931,133.859C33.885,227.82,0,271.349,0,321.107c0,60.383,49.125,109.508,109.508,109.508h292.983     C462.875,430.615,512,381.49,512,321.107C512,296.896,504.246,273.956,489.579,254.766z M402.491,415.061H109.508     c-51.806,0-93.953-42.147-93.953-93.953c0-44.549,31.647-83.274,75.248-92.079l6.342-1.281l-0.106-6.47     c-0.008-0.465-0.036-0.923-0.069-1.38c-0.012-0.173-0.031-0.344-0.031-0.52c0-67.512,54.925-122.437,122.436-122.437     c39.135,0,75.005,18.162,98.411,49.828l3.349,4.53l5.348-1.769c7.542-2.494,15.317-3.759,23.108-3.759     c40.587,0,73.606,33.019,73.606,73.607c0,0.645-0.05,1.382-0.103,2.164c-0.034,0.505-0.067,1.011-0.093,1.518l-0.303,6.145     l5.911,1.709c19.171,5.544,36.435,17.369,48.61,33.297c12.577,16.453,19.224,36.127,19.224,56.895     C496.445,372.913,454.297,415.061,402.491,415.061z"
   id="path2" />
			<path
   d="M135.62,193.401h15.555c0-26.66,21.69-48.35,48.351-48.35v-15.555C164.289,129.495,135.62,158.163,135.62,193.401z"
   id="path4" />
		</g>
	</g>
</g>
<g
   id="g12">
</g>
<g
   id="g14">
</g>
<g
   id="g16">
</g>
<g
   id="g18">
</g>
<g
   id="g20">
</g>
<g
   id="g22">
</g>
<g
   id="g24">
</g>
<g
   id="g26">
</g>
<g
   id="g28">
</g>
<g
   id="g30">
</g>
<g
   id="g32">
</g>
<g
   id="g34">
</g>
<g
   id="g36">
</g>
<g
   id="g38">
</g>
<g
   id="g40">
</g>
<g
   id="g115"
   transform="matrix(0.68103122,0,0,0.62836374,81.65594,126.28476)"
   style="fill:#000000"><g
     id="g51"
     style="fill:#000000">
	<g
   id="g49"
   style="fill:#000000">
		<path
   d="m 439.197,159.224 c -5.731,-1.312 -11.439,2.277 -12.748,8.009 -1.309,5.732 2.277,11.44 8.009,12.748 39.456,9.007 56.878,24.728 56.229,32.515 -1.298,15.565 -18.318,42.781 -41.389,66.184 -25.039,25.397 -52.317,41.805 -71.191,42.822 -29.997,1.609 -82.331,-59.942 -111.463,-103.355 v -20.582 c 32.006,-14.518 68.135,-22.638 104.938,-23.529 5.877,-0.143 10.527,-5.023 10.385,-10.9 -0.142,-5.877 -5.046,-10.54 -10.9,-10.385 -36.319,0.88 -72.075,8.33 -104.422,21.637 v -10.565 l 49.651,-58.78 c 3.793,-4.491 3.228,-11.209 -1.264,-15.002 -4.491,-3.793 -11.208,-3.229 -15.002,1.264 L 256,143.432 211.97,91.306 c -3.795,-4.494 -10.513,-5.058 -15.002,-1.264 -4.491,3.793 -5.057,10.51 -1.264,15.002 l 49.651,58.78 v 10.534 C 197.951,154.78 152.99,151.719 122.391,152.875 81.448,154.422 43.592,164.529 21.128,179.914 2.443,192.707 -0.624,205.655 0.094,214.265 c 2.096,25.158 25.883,57.492 47.445,79.363 12.657,12.838 43.659,41.288 75.48,47.848 3.551,48.611 34.413,68.727 48.135,75.304 10.477,5.032 21.595,7.693 32.15,7.693 21.401,0 41.123,-12.215 52.696,-29.971 11.573,17.756 31.295,29.971 52.696,29.971 12.811,0 26.525,-3.96 38.615,-11.152 0.009,-0.005 0.018,-0.011 0.027,-0.016 0.014,-0.009 0.028,-0.017 0.042,-0.025 14.661,-8.741 38.515,-29.353 41.606,-71.804 31.82,-6.562 62.819,-35.01 75.474,-47.847 21.562,-21.871 45.349,-54.205 47.445,-79.363 1.939,-23.271 -25.922,-44.361 -72.708,-55.042 z M 133.89,321.502 C 115.017,320.485 87.739,304.077 62.7,278.68 39.628,255.277 22.607,228.06 21.311,212.496 c -0.341,-4.09 4.087,-9.703 11.845,-15.017 18.997,-13.01 53.498,-21.95 90.037,-23.33 30.162,-1.141 75.329,2.126 122.16,23.417 v 20.58 c -29.125,43.41 -81.436,104.997 -111.463,103.356 z m 36.892,70.364 c -11.349,-8.239 -23.894,-23.282 -26.367,-50.032 19.644,-3.994 42.454,-20.213 69.204,-49.174 z m 74.571,-32.332 c 0,22.843 -20.043,43.647 -42.05,43.647 -4.256,0 -8.809,-0.697 -13.359,-1.984 l 55.41,-128.326 v 86.663 z m 63.342,43.647 c -22.008,0 -42.05,-20.804 -42.05,-43.647 v -90.467 l 61.154,130.193 c -6.378,2.532 -13.021,3.921 -19.104,3.921 z m 37.306,-15.249 -41.91,-89.224 c 24.303,25.181 45.259,39.419 63.49,43.125 -2.203,23.265 -12.174,37.596 -21.58,46.099 z"
   id="path47"
   style="fill:#000000" />
	</g>
</g><g
     id="g57"
     style="fill:#000000">
	<g
   id="g55"
   style="fill:#000000">
		<path
   d="m 409.685,154.33 c -1.353,-0.147 -2.715,-0.284 -4.086,-0.412 -5.853,-0.542 -11.042,3.759 -11.587,9.613 -0.546,5.854 3.758,11.042 9.612,11.588 1.264,0.117 2.52,0.244 3.768,0.379 0.39,0.043 0.776,0.063 1.159,0.063 5.365,0 9.98,-4.044 10.571,-9.5 0.633,-5.846 -3.593,-11.098 -9.437,-11.731 z"
   id="path53"
   style="fill:#000000" />
	</g>
</g><g
     id="g59"
     style="fill:#000000">
</g><g
     id="g61"
     style="fill:#000000">
</g><g
     id="g63"
     style="fill:#000000">
</g><g
     id="g65"
     style="fill:#000000">
</g><g
     id="g67"
     style="fill:#000000">
</g><g
     id="g69"
     style="fill:#000000">
</g><g
     id="g71"
     style="fill:#000000">
</g><g
     id="g73"
     style="fill:#000000">
</g><g
     id="g75"
     style="fill:#000000">
</g><g
     id="g77"
     style="fill:#000000">
</g><g
     id="g79"
     style="fill:#000000">
</g><g
     id="g81"
     style="fill:#000000">
</g><g
     id="g83"
     style="fill:#000000">
</g><g
     id="g85"
     style="fill:#000000">
</g><g
     id="g87"
     style="fill:#000000">
</g></g><path
   style="fill:#e3e2db;stroke-width:0.891229"
   d="m 92.606445,413.03665 c -41.88787,-7.58444 -73.948335,-44.08247 -76.287588,-86.84673 -1.467382,-26.82546 8.648419,-52.74744 28.024836,-71.81431 5.991074,-5.89537 15.565557,-12.873 22.498504,-16.39631 5.920366,-3.00873 18.708059,-7.56347 23.617577,-8.41216 6.801343,-1.17571 6.358467,-0.36108 6.95453,-12.79223 1.205458,-25.14038 8.017846,-46.33057 21.121086,-65.69795 24.7756,-36.61986 69.16095,-57.587653 112.293,-53.047614 23.01738,2.422784 42.5881,9.887794 60.76447,23.177834 7.20271,5.26643 18.86731,16.80799 24.3197,24.0632 2.39443,3.18614 4.468,5.94487 4.60793,6.13051 0.13993,0.18564 3.97938,-0.73687 8.53211,-2.05001 31.60079,-9.11462 64.56536,3.45447 82.49745,31.45555 7.44574,11.62659 10.8769,23.91439 10.88639,38.98695 l 0.006,9.9089 5.57018,1.53491 c 7.34383,2.02366 20.42573,8.22015 27.51458,13.03282 7.40447,5.02694 19.09927,16.70178 23.92155,23.88073 25.41293,37.83236 20.78997,87.04667 -11.17988,119.01651 -12.8824,12.88241 -29.42074,21.76541 -47.31021,25.41104 -8.95106,1.82412 -10.67434,1.8425 -165.3161,1.76335 C 127.21577,414.27592 98.166594,414.0434 92.606445,413.03665 Z M 238.31363,389.20731 c 4.54054,-2.1563 8.78424,-5.0868 12.41497,-8.57321 l 5.51634,-5.29705 2.86186,3.40881 c 7.34605,8.74997 20.11843,14.28626 32.95884,14.28626 26.36806,0 48.59648,-18.3108 53.60862,-44.16042 l 1.45955,-7.52749 4.90176,-1.42174 c 32.67686,-9.47777 75.87352,-52.56278 78.19604,-77.99393 0.60775,-6.65472 -0.92591,-10.90193 -5.82978,-16.14456 -4.80742,-5.13952 -11.62276,-9.42676 -20.8749,-13.1315 -9.37288,-3.75308 -23.59994,-7.43079 -26.21077,-6.77551 -3.39796,0.85283 -5.67354,3.70649 -5.67354,7.11481 0,4.09973 2.6737,6.07944 10.8698,8.04838 18.09772,4.34762 32.80161,12.91277 32.79973,19.10612 -8.9e-4,2.97235 -4.22972,11.91413 -8.85715,18.72833 -18.27182,26.90644 -53.72082,51.276 -70.85145,48.7071 -14.96294,-2.24384 -43.4601,-26.93349 -67.01852,-58.06419 -4.7336,-6.2551 -4.78116,-6.38058 -4.78116,-12.61573 v -6.29778 l 7.4518,-2.69638 c 16.75898,-6.06411 36.90315,-10.27057 54.04302,-11.28516 11.84124,-0.70093 12.92597,-0.93752 15.12623,-3.29924 2.51557,-2.70014 2.30592,-6.53322 -0.51142,-9.35056 -2.3165,-2.3165 -2.32815,-2.31804 -13.14563,-1.73557 -18.59434,1.0012 -39.00531,4.83586 -55.6032,10.4463 l -7.3608,2.48811 v -2.88946 c 0,-2.51079 2.27079,-5.36835 17.32709,-21.80437 9.52989,-10.40318 17.58737,-19.73497 17.9055,-20.73729 1.76509,-5.56134 -5.69224,-10.8609 -11.16304,-7.93301 -1.21782,0.65175 -23.16175,24.03576 -31.18729,33.23395 -0.33624,0.38538 -6.5461,-5.83095 -13.79966,-13.81405 -18.09232,-19.91199 -18.52756,-20.30773 -22.33464,-20.30773 -4.08475,0 -7.54803,3.26195 -7.54803,7.10924 0,3.01196 -0.93333,1.87048 21.61231,26.43219 11.70979,12.75689 14.03686,15.74261 14.03686,18.0098 v 2.71775 l -5.12456,-1.79091 c -9.1869,-3.21057 -28.15298,-7.77105 -39.03584,-9.38633 -13.18167,-1.95649 -47.50135,-2.24319 -59.66781,-0.49845 -40.48815,5.80623 -65.417844,20.82789 -63.377413,38.18876 3.092863,26.31545 47.041583,69.85902 78.973923,78.2459 3.67325,0.96476 4.07433,1.34871 4.76913,4.56545 3.49132,16.16396 8.08137,24.93974 17.7663,33.96764 10.97664,10.23198 23.04346,14.69537 38.58427,14.27192 9.25627,-0.25221 10.30559,-0.47401 16.77266,-3.5452 z M 364.83821,235.21985 c 1.81129,-1.42477 2.34826,-2.63273 2.34826,-5.28269 0,-4.63675 -3.08905,-7.12984 -8.83418,-7.12984 -4.98533,0 -7.75301,1.74246 -8.55299,5.3847 -1.53783,7.00173 8.88187,11.87096 15.03891,7.02783 z M 152.25909,186.51624 c 1.63727,-10.53132 6.5598,-19.91131 14.26263,-27.17776 7.59177,-7.1617 15.2318,-11.063 25.43847,-12.98992 l 7.67517,-1.44899 v -7.96644 -7.96643 l -6.72673,0.56861 c -21.09117,1.78286 -40.95549,15.40051 -50.67534,34.73963 -3.71366,7.3889 -6.76644,18.58149 -6.76644,24.80823 v 4.31359 h 7.86128 7.86127 z"
   id="path952" /><path
   style="fill:#e3e2db;stroke-width:0.891229"
   d="m 165.76865,326.59098 c -22.26509,-6.21308 -55.33785,-34.96463 -65.56005,-56.99412 -4.667831,-10.05947 -4.676756,-10.75742 -0.1923,-15.03813 6.97366,-6.65682 21.68336,-12.39932 40.77985,-15.91999 8.62776,-1.59063 13.75381,-1.89792 32.10233,-1.92443 18.81671,-0.0272 23.39272,0.246 33.10279,1.97632 13.30131,2.37027 24.11992,5.23182 34.85345,9.21882 l 7.79825,2.89668 v 5.98065 5.98064 l -7.50574,9.65531 c -13.20128,16.98198 -32.76932,36.88062 -44.42734,45.17795 -12.97089,9.23173 -21.35692,11.66759 -30.95124,8.9903 z"
   id="path954" /><path
   style="fill:#e3e2db;stroke-width:0.891229"
   d="m 193.22149,367.88118 c -5.03286,-4.7465 -8.14225,-9.68012 -10.48638,-16.63858 -2.86409,-8.50192 -2.62544,-9.43571 2.86339,-11.20391 9.40406,-3.02946 19.87583,-9.72364 32.69201,-20.89869 3.64296,-3.17647 6.39591,-5.19576 6.11767,-4.48731 -1.36988,3.48799 -25.94958,55.74621 -26.50323,56.34779 -0.35164,0.38209 -2.4592,-1.0216 -4.68346,-3.1193 z"
   id="path956" /><path
   style="fill:#e3e2db;stroke-width:0.891229"
   d="m 212.66715,378.05752 c -0.45277,-0.73259 34.18736,-76.21185 35.64555,-77.67005 0.25082,-0.25082 0.32973,12.37029 0.17535,28.04691 l -0.28069,28.50295 -2.36297,5.04025 c -2.7917,5.95473 -8.14191,11.43038 -13.95293,14.28007 -4.54883,2.23072 -18.16988,3.50599 -19.22431,1.79987 z"
   id="path958" /><path
   style="fill:#e3e2db;stroke-width:0.891229"
   d="m 281.00943,376.59956 c -6.6108,-3.07793 -12.09069,-8.48767 -14.86907,-14.67873 l -2.36106,-5.26114 0.23509,-29.0776 0.2351,-29.07761 19.60704,38.39736 c 10.78388,21.11855 19.72553,38.73221 19.87035,39.14146 0.48598,1.37332 -5.37511,2.72923 -11.75947,2.72044 -4.81008,-0.007 -7.43916,-0.52585 -10.95798,-2.16418 z"
   id="path960" /><path
   style="fill:#e3e2db;stroke-width:0.891229"
   d="m 304.45541,343.74981 c -7.16288,-13.95556 -13.02343,-25.66756 -13.02343,-26.02667 0,-0.35911 1.59309,0.78634 3.5402,2.54543 9.82672,8.87786 23.90816,17.56465 32.77739,20.22027 2.08325,0.62377 3.78773,1.38743 3.78773,1.69703 0,0.30961 -0.61409,2.92057 -1.36464,5.80214 -1.74495,6.6993 -5.96185,14.61068 -9.73922,18.27185 l -2.95459,2.8637 z"
   id="path962" /></svg>
