<?xml version="1.0" encoding="UTF-8" standalone="no"?>
<!-- Created with Inkscape (http://www.inkscape.org/) -->

<svg
   width="67.733337mm"
   height="41.010414mm"
   viewBox="0 0 67.733333 41.010411"
   version="1.1"
   id="svg21"
   xml:space="preserve"
   inkscape:version="1.2.1 (9c6d41e4, 2022-07-14)"
   sodipodi:docname="logo.svg"
   inkscape:export-filename="logo.svg"
   inkscape:export-xdpi="96"
   inkscape:export-ydpi="96"
   xmlns:inkscape="http://www.inkscape.org/namespaces/inkscape"
   xmlns:sodipodi="http://sodipodi.sourceforge.net/DTD/sodipodi-0.dtd"
   xmlns="http://www.w3.org/2000/svg"
   xmlns:svg="http://www.w3.org/2000/svg"><sodipodi:namedview
     id="namedview23"
     pagecolor="#505050"
     bordercolor="#eeeeee"
     borderopacity="1"
     inkscape:showpageshadow="0"
     inkscape:pageopacity="0"
     inkscape:pagecheckerboard="0"
     inkscape:deskcolor="#505050"
     inkscape:document-units="mm"
     showgrid="false"
     inkscape:zoom="0.78127806"
     inkscape:cx="128.63538"
     inkscape:cy="461.42343"
     inkscape:window-width="1920"
     inkscape:window-height="1027"
     inkscape:window-x="0"
     inkscape:window-y="25"
     inkscape:window-maximized="0"
     inkscape:current-layer="layer1" /><defs
     id="defs18" /><g
     inkscape:label="Capa 1"
     inkscape:groupmode="layer"
     id="layer1"
     transform="translate(0,-13.361458)"><g
       id="g84"
       transform="matrix(0.13229141,0,0,0.11710637,0,3.8874359)"
       style="fill:#ffffff"
       inkscape:export-filename="logo.svg"
       inkscape:export-xdpi="41.950966"
       inkscape:export-ydpi="41.950966"><g
         id="g29"
         style="fill:#ffffff">
	<g
   id="g27"
   style="fill:#ffffff">
		<path
   d="m 428.018,234.699 c 2.088,-9.158 3.14,-18.553 3.14,-28.044 0,-69.342 -56.412,-125.754 -125.754,-125.754 -56.057,0 -105.517,37.724 -120.855,90.895 -4.579,-0.711 -9.219,-1.07 -13.882,-1.07 -46.636,0 -85.088,35.728 -89.417,81.25 C 35.728,256.304 0,294.697 0,341.333 c 0,49.532 40.294,89.766 89.825,89.766 h 323.917 c 54.18,0 98.259,-44.559 98.259,-98.749 C 512,282.714 475.926,241.817 428.018,234.699 Z M 413.693,413.134 H 89.825 c -39.623,0 -71.86,-32.178 -71.86,-71.802 0,-39.622 32.237,-71.83 71.86,-71.83 4.961,0 8.982,-4.007 8.982,-8.967 0,-39.623 32.237,-71.853 71.86,-71.853 6.18,0 12.312,0.79 18.228,2.333 2.386,0.627 4.908,0.242 6.991,-1.043 2.088,-1.289 3.557,-3.381 4.07,-5.78 10.474,-49.443 54.825,-85.329 105.447,-85.329 59.434,0 107.789,48.356 107.789,107.791 0,11.355 -1.754,22.535 -5.215,33.224 -0.869,2.68 -0.43,5.61 1.184,7.917 1.614,2.307 4.219,3.724 7.031,3.829 43.649,1.588 77.842,37.016 77.842,80.726 0.001,44.339 -36.06,80.784 -80.341,80.784 z"
   id="path25"
   style="fill:#ffffff" />
	</g>
</g><g
         id="g31"
         style="fill:#ffffff">
</g><g
         id="g33"
         style="fill:#ffffff">
</g><g
         id="g35"
         style="fill:#ffffff">
</g><g
         id="g37"
         style="fill:#ffffff">
</g><g
         id="g39"
         style="fill:#ffffff">
</g><g
         id="g41"
         style="fill:#ffffff">
</g><g
         id="g43"
         style="fill:#ffffff">
</g><g
         id="g45"
         style="fill:#ffffff">
</g><g
         id="g47"
         style="fill:#ffffff">
</g><g
         id="g49"
         style="fill:#ffffff">
</g><g
         id="g51"
         style="fill:#ffffff">
</g><g
         id="g53"
         style="fill:#ffffff">
</g><g
         id="g55"
         style="fill:#ffffff">
</g><g
         id="g57"
         style="fill:#ffffff">
</g><g
         id="g59"
         style="fill:#ffffff">
</g></g><g
       id="g303"
       transform="matrix(0.08052635,0,0,0.06459541,19.916045,18.220067)"
       style="fill:#ffffff"><g
         id="g248"
         style="fill:#ffffff">
	<g
   id="g246"
   style="fill:#ffffff">
		<path
   d="M 464.457,314.514 409.6,241.371 c -1.417,-1.883 -3.493,-3.145 -5.806,-3.529 l -54.857,-9.143 c -1.262,-0.21 -2.487,-0.155 -3.648,0.128 C 333.851,214.052 322.66,200.585 313.06,189.44 l 64.018,-16 c 2.35,-0.585 4.37,-2.085 5.614,-4.16 l 27.429,-45.714 c 2.606,-4.334 1.198,-9.947 -3.127,-12.544 -4.334,-2.606 -9.957,-1.207 -12.544,3.127 l -25.49,42.469 -59.95,14.994 c 1.161,-5.184 1.847,-10.587 1.847,-16.183 0,-7.195 -1.115,-14.153 -3.035,-20.727 0.11,-0.101 0.247,-0.128 0.357,-0.238 L 344.75,97.893 c 1.719,-1.71 2.679,-4.041 2.679,-6.464 V 64 c 0,-5.047 -4.096,-9.143 -9.143,-9.143 -5.047,0 -9.143,4.096 -9.143,9.143 v 23.643 l -29.339,29.33 c -1.618,-2.505 -3.438,-4.846 -5.385,-7.067 4.489,-4.882 7.296,-11.337 7.296,-18.478 0,-11.703 -7.406,-21.641 -17.746,-25.573 3.584,-26.807 26.542,-47.57 54.318,-47.57 5.047,0 9.143,-4.096 9.143,-9.143 0,-5.047 -4.096,-9.143 -9.143,-9.143 -37.23,0 -67.986,27.977 -72.512,64 h -19.547 c -4.526,-36.023 -35.282,-64 -72.512,-64 -5.047,0 -9.143,4.096 -9.143,9.143 0,5.047 4.096,9.143 9.143,9.143 27.776,0 50.734,20.763 54.318,47.57 -10.341,3.931 -17.746,13.87 -17.746,25.573 0,7.141 2.807,13.595 7.296,18.478 -1.947,2.222 -3.767,4.562 -5.394,7.067 L 182.86,87.643 V 64 c 0,-5.047 -4.096,-9.143 -9.143,-9.143 -5.047,0 -9.143,4.096 -9.143,9.143 v 27.429 c 0,2.423 0.96,4.754 2.679,6.464 l 36.571,36.571 c 0.11,0.11 0.247,0.137 0.357,0.238 -1.92,6.574 -3.035,13.531 -3.035,20.727 0,5.595 0.686,10.999 1.847,16.183 l -59.95,-14.994 -25.49,-42.469 c -2.597,-4.334 -8.219,-5.723 -12.544,-3.127 -4.325,2.597 -5.733,8.21 -3.127,12.544 l 27.429,45.714 c 1.243,2.075 3.264,3.575 5.614,4.16 l 59.886,14.976 c -9.801,11.355 -21.339,25.225 -33.152,40.512 l -53.449,8.914 c -2.313,0.384 -4.398,1.646 -5.806,3.529 l -54.857,73.143 c -3.026,4.041 -2.213,9.774 1.829,12.8 1.646,1.234 3.566,1.829 5.477,1.829 2.779,0 5.522,-1.262 7.323,-3.657 l 52.663,-70.217 31.031,-5.166 c -25.143,34.935 -48.274,73.874 -54.382,105.472 -0.037,0.329 -0.338,3.319 -0.055,7.845 1.024,16.21 8.448,31.067 20.901,41.819 11.474,9.92 26.395,15.378 41.582,15.378 1.737,0 3.483,-0.064 5.221,-0.21 7.717,-0.64 14.592,-1.975 20.919,-3.712 C 192.622,474.935 221.815,512 256,512 c 33.819,0 62.939,-36.626 75.675,-94.117 5.038,1.115 10.331,2.039 16.155,2.523 1.746,0.146 3.483,0.21 5.23,0.21 15.186,0 30.107,-5.467 41.582,-15.378 12.453,-10.761 19.877,-25.609 20.901,-41.819 0.283,-4.526 -0.018,-7.515 -0.165,-8.585 -6.107,-31.525 -29.522,-70.629 -54.866,-105.673 l 36.654,6.107 52.663,70.217 c 1.792,2.395 4.544,3.657 7.323,3.657 1.902,0 3.831,-0.594 5.477,-1.829 4.041,-3.025 4.854,-8.758 1.828,-12.799 z m -291.328,45.267 c -1.371,3.666 -4.855,5.934 -8.558,5.934 -1.07,0 -2.149,-0.192 -3.209,-0.585 -4.727,-1.774 -7.122,-7.04 -5.358,-11.767 l 7.909,-21.093 -14.949,-14.949 c -3.575,-3.575 -3.575,-9.353 0,-12.928 3.575,-3.575 9.353,-3.575 12.928,0 l 9.079,9.079 12.462,-33.253 c 1.783,-4.727 7.04,-7.095 11.776,-5.358 4.727,1.783 7.122,7.049 5.349,11.776 z M 256,493.714 c -24.923,0 -48.603,-34.167 -58.734,-83.904 1.417,-0.832 2.743,-1.728 4.032,-2.642 0.539,-0.384 1.051,-0.786 1.573,-1.189 1.801,-1.39 3.438,-2.88 4.946,-4.443 0.521,-0.53 1.061,-1.042 1.536,-1.591 1.554,-1.783 2.898,-3.685 4.105,-5.659 0.366,-0.613 0.722,-1.225 1.051,-1.856 1.143,-2.13 2.121,-4.352 2.871,-6.693 0.155,-0.466 0.265,-0.951 0.393,-1.426 0.741,-2.615 1.317,-5.312 1.582,-8.155 2.761,-13.797 18.039,-91.95 21.65,-152.512 8.256,-4.599 16.247,-5.531 24.823,-2.331 0,0.009 0,0.027 0.009,0.046 3.355,60.864 18.981,140.827 21.778,154.798 0.247,2.715 0.786,5.632 1.664,8.603 0.073,0.238 0.119,0.494 0.201,0.731 0.695,2.222 1.701,4.471 2.88,6.711 0.338,0.649 0.667,1.298 1.042,1.929 1.198,2.011 2.597,3.995 4.288,5.925 0.512,0.585 1.115,1.106 1.655,1.664 1.298,1.326 2.725,2.606 4.297,3.858 0.823,0.64 1.646,1.28 2.514,1.883 1.573,1.088 3.319,2.112 5.147,3.099 0.896,0.494 1.728,1.033 2.679,1.49 0.091,0.037 0.155,0.091 0.247,0.137 -10.394,48.366 -33.827,81.527 -58.229,81.527 z M 363.035,304.393 c 3.575,3.575 3.575,9.353 0,12.928 l -14.949,14.949 7.899,21.093 c 1.774,4.727 -0.622,9.993 -5.349,11.767 -1.061,0.393 -2.139,0.585 -3.209,0.585 -3.703,0 -7.186,-2.267 -8.567,-5.934 l -27.429,-73.143 c -1.765,-4.727 0.631,-9.993 5.358,-11.776 4.727,-1.737 9.993,0.631 11.767,5.358 l 12.471,33.253 9.079,-9.079 c 3.576,-3.576 9.355,-3.576 12.929,-0.001 z"
   id="path244"
   style="fill:#ffffff" />
	</g>
</g><g
         id="g250"
         style="fill:#ffffff">
</g><g
         id="g252"
         style="fill:#ffffff">
</g><g
         id="g254"
         style="fill:#ffffff">
</g><g
         id="g256"
         style="fill:#ffffff">
</g><g
         id="g258"
         style="fill:#ffffff">
</g><g
         id="g260"
         style="fill:#ffffff">
</g><g
         id="g262"
         style="fill:#ffffff">
</g><g
         id="g264"
         style="fill:#ffffff">
</g><g
         id="g266"
         style="fill:#ffffff">
</g><g
         id="g268"
         style="fill:#ffffff">
</g><g
         id="g270"
         style="fill:#ffffff">
</g><g
         id="g272"
         style="fill:#ffffff">
</g><g
         id="g274"
         style="fill:#ffffff">
</g><g
         id="g276"
         style="fill:#ffffff">
</g><g
         id="g278"
         style="fill:#ffffff">
</g></g></g></svg>
